# AST/ASF file generated using VICON BodyLanguage
# -----------------------------------------------
:version 1.10
:name VICON
:units
  mass 1.0
  length 0.45
  angle deg
:documentation
   .ast/.asf automatically generated from VICON data using
   VICON BodyBuilder and BodyLanguage model FoxedUp or BRILLIANT.MOD
:root
   order TX TY TZ RX RY RZ
   axis XYZ
   position 0 0 0  
   orientation 0 0 0 
:bonedata
  begin
     id 1 
     name lhipjoint
     direction 0.702568 -0.596508 0.388042 
     length 2.56661 
     axis 0 0 0  XYZ
  end
  begin
     id 2 
     name lfemur
     direction 0.34202 -0.939693 0  
     length 6.58374  
     axis 0 0 20  XYZ
    dof rx ry rz
    limits (-160.0 20.0)
           (-70.0 70.0)
           (-60.0 70.0)
  end
  begin
     id 3 
     name ltibia
     direction 0.34202 -0.939693 0   
     length 6.62538   
     axis 0 0 20   XYZ
    dof rx
    limits (-10.0 170.0)
  end
  begin
     id 4 
     name lfoot
     direction 0.10455 -0.287249 0.952133   
     length 2.26699   
     axis -90 7.62852e-016 20   XYZ
    dof rx rz
    limits (-45.0 90.0)
           (-70.0 20.0)
  end
  begin
     id 5 
     name ltoes
     direction 1.53572e-011 -4.22322e-011 1   
     length 1.12949   
     axis -90 7.62852e-016 20   XYZ
    dof rx
    limits (-90.0 20.0)
  end
  begin
     id 6 
     name rhipjoint
     direction -0.728055 -0.574632 0.373811   
     length 2.66432  
     axis 0 0 0  XYZ 
  end
  begin
     id 7 
     name rfemur
     direction -0.34202 -0.939693 0   
     length 6.66732   
     axis 0 0 -20   XYZ
    dof rx ry rz
    limits (-160.0 20.0)
           (-70.0 70.0)
           (-70.0 60.0)
  end
  begin
     id 8 
     name rtibia
     direction -0.34202 -0.939693 0   
     length 6.59288   
     axis 0 0 -20   XYZ
    dof rx
    limits (-10.0 170.0)
 end
 begin
     id 9 
     name rfoot
     direction -0.119193 -0.327479 0.93731   
     length 2.38061  
     axis -90 -7.62852e-016 -20   XYZ
    dof rx rz
    limits (-45.0 90.0)
           (-20.0 70.0)
  end
  begin
     id 10 
     name rtoes
     direction -1.53547e-011 -4.21827e-011 1   
     length 1.17899   
     axis -90 -7.62852e-016 -20   XYZ
    dof rx
    limits (-90.0 20.0)
  end
  begin
     id 11 
     name lowerback
     direction -0.000416114 0.999912 -0.0132284   
     length 2.12109   
     axis 0 0 0   XYZ
    dof rx ry rz
    limits (-20.0 45.0)
           (-30.0 30.0)
           (-30.0 30.0)
  end
  begin
     id 12 
     name upperback
     direction -0.00136371 0.99809 0.0617608   
     length 2.10067   
     axis 0 0 0   XYZ
    dof rx ry rz
    limits (-20.0 45.0)
           (-30.0 30.0)
           (-30.0 30.0)
  end
  begin
     id 13 
     name thorax
     direction -3.43026e-005 0.997776 0.0666515   
     length 2.10618   
     axis 0 0 0   XYZ
    dof rx ry rz
    limits (-20.0 45.0)
           (-30.0 30.0)
           (-30.0 30.0)
  end
  begin
     id 14 
     name lowerneck
     direction 0.0398646 0.998418 0.0396592   
     length 1.83817   
     axis 0 0 0   XYZ
    dof rx ry rz
    limits (-20.0 45.0)
           (-30.0 30.0)
           (-30.0 30.0)
  end
  begin
     id 15 
     name upperneck
     direction -0.0367268 0.961527 -0.272244   
     length 1.81975   
     axis 0 0 0   XYZ
    dof rx ry rz
    limits (-20.0 45.0)
           (-30.0 30.0)
           (-30.0 30.0)
  end
  begin
     id 16
     name head
     direction -0.0182665 0.99536 -0.0944669  
     length 1.86026  
     axis 0 0 0   XYZ
    dof rx ry rz
    limits (-20.0 45.0)
           (-30.0 30.0)
           (-30.0 30.0)
  end
  begin
     id 17 
     name lclavicle
     direction 0.924239 0.361045 0.124212  
     length 3.26878  
     axis 0 0 0   XYZ
    dof ry rz
    limits (-20.0 10.0)
           (0.0 20.0)
  end
  begin
     id 18 
     name lhumerus
     direction 1 -4.48968e-011 -2.56583e-027   
     length 4.58538   
     axis 180 -30 -90   XYZ
    dof rx ry rz
    limits (-60.0 90.0)
           (-90.0 90.0)
           (-90.0 90.0)
  end
  begin
     id 19
     name lradius
     direction 1 -4.4898e-011 -5.50375e-027   
     length 2.68935   
     axis 180 -30 -90   XYZ
    dof rx
    limits (-10.0 170.0)
  end
  begin
     id 20
     name lwrist
     direction 1 -4.48939e-011 -1.48955e-026   
     length 1.34468   
     axis 9.0955e-015 90 90   XYZ
    dof ry
    limits (-180.0 0.0)
 end
  begin
     id 21 
     name lhand
     direction 1 -4.48936e-011 -2.97907e-026   
     length 0.585058   
     axis 1.90115e-014 90 90   XYZ
    dof rx rz
    limits (-90.0 90.0)
           (-45.0 45.0)
  end
  begin
     id 22 
     name lfingers
     direction 1 -4.49082e-011 -5.96235e-026   
     length 0.471689   
     axis 3.80223e-014 90 90   XYZ
    dof rx
    limits (0.0 90.0)
  end
  begin
     id 23
     name lthumb
     direction 0.707107 -6.3489e-011 0.707107   
     length 0.677253   
     axis -90 45 -3.84942e-014   XYZ
    dof rx rz
    limits (-45.0 45.0)
           (-45.0 45.0)
  end
  begin
     id 24 
     name rclavicle
     direction -0.923098 0.371783 0.0983239   
     length 3.19656  
     axis 0 0 0   XYZ 
    dof ry rz
    limits (-10.0 20.0)
           (-20.0 0.0)
  end
  begin
     id 25 
     name rhumerus
     direction -1 -4.48976e-011 -2.5492e-027  
     length 4.4745   
     axis 180 30 90   XYZ
    dof rx ry rz
    limits (-90.0 60.0)
           (-90.0 90.0)
           (-90.0 90.0)
  end
  begin
     id 26 
     name rradius
     direction -1 -4.48941e-011 -4.36555e-027   
     length 2.93896   
     axis 180 30 90   XYZ
    dof rx
    limits (-10.0 170.0)
  end
  begin
     id 27 
     name rwrist
     direction -1 -4.49044e-011 -1.49032e-026   
     length 1.46948   
     axis 9.0955e-015 -90 -90   XYZ
    dof ry
    limits (-180.0 0.0)
  end
  begin
     id 28
     name rhand
     direction -1 -4.48826e-011 -2.97749e-026   
     length 0.405092   
     axis 1.90115e-014 -90 -90   XYZ
    dof rx rz
    limits (-90.0 90.0)
           (-45.0 45.0)
  end
  begin
     id 29
     name rfingers
     direction -1 -4.49209e-011 -5.96602e-026   
     length 0.326596   
     axis 3.80223e-014 -90 -90   XYZ
    dof rx
    limits (0.0 90.0)
  end
  begin
     id 30
     name rthumb
     direction -0.707107 -6.34776e-011 0.707107   
     length 0.468928   
     axis -90 -45 3.84942e-014   XYZ
    dof rx rz
    limits (-45.0 45.0)
           (-45.0 45.0)
  end
:hierarchy
  begin
    root lhipjoint rhipjoint lowerback
    lhipjoint lfemur
    lfemur ltibia
    ltibia lfoot
    lfoot ltoes
    rhipjoint rfemur
    rfemur rtibia
    rtibia rfoot
    rfoot rtoes
    lowerback upperback
    upperback thorax
    thorax lowerneck lclavicle rclavicle
    lowerneck upperneck
    upperneck head
    lclavicle lhumerus
    lhumerus lradius
    lradius lwrist
    lwrist lhand lthumb
    lhand lfingers
    rclavicle rhumerus
    rhumerus rradius
    rradius rwrist
    rwrist rhand rthumb
    rhand rfingers
  end

#!OML:ASF H:\Punching\Project 1\Capture day 1\Session 1\female.ASF
:FULLY-SPECIFIED
:DEGREES
460
root 0.725037 15.6859 6.5951 15.1883 -5.59877 0.645496
lowerback -3.62673 -0.67553 1.35568
upperback -6.38598 -0.902577 0.634054
thorax -4.57186 -0.503061 -0.0986975
lowerneck -3.33381 10.6024 18.0204
upperneck 19.1566 16.0623 -15.8577
head 9.32702 7.76639 -6.70033
rclavicle 2.70223e-016 1.98785e-015
rhumerus -42.2785 4.44778 -84.1876
rradius 39.5185
rwrist -5.65524
rhand -14.0027 -5.09135
rfingers 7.12502
rthumb 12.1265 -34.7199
lclavicle 2.70223e-016 1.98785e-015
lhumerus -57.5544 14.7758 66.8509
lradius 27.643
lwrist -12.4829
lhand -16.9323 18.5312
lfingers 7.12502
lthumb 9.30068 48.3061
rfemur -20.9606 7.74727 17.8771
rtibia 30.8963
rfoot -21.6134 -16.9421
rtoes 0.713565
lfemur -13.8366 -11.2536 -16.0066
ltibia 20.1186
lfoot -19.0468 23.5699
ltoes -3.08821
461
root 0.737539 15.6903 6.58503 15.1784 -5.60876 0.722171
lowerback -3.61686 -0.674758 1.11959
upperback -6.37748 -0.898186 0.687778
thorax -4.56323 -0.488448 0.0887611
lowerneck -3.26771 10.5927 18.0394
upperneck 18.6801 16.0147 -15.952
head 9.15137 7.746 -6.73811
rclavicle 8.03214e-015 7.95139e-016
rhumerus -42.7834 4.35261 -83.8028
rradius 40.3539
rwrist -6.89693
rhand -13.6224 -4.82831
rfingers 7.12502
rthumb 12.4931 -34.4349
lclavicle 8.03214e-015 7.95139e-016
lhumerus -57.8737 13.0393 68.3162
lradius 29.1698
lwrist -11.0636
lhand -16.6676 18.4696
lfingers 7.12502
lthumb 9.55609 48.2329
rfemur -21.0467 7.79152 17.74
rtibia 30.9725
rfoot -21.5765 -17.0397
rtoes 0.759747
lfemur -13.6647 -11.7605 -16.0826
ltibia 19.7163
lfoot -18.9186 23.9314
ltoes -2.79346
462
root 0.748549 15.6951 6.57456 15.158 -5.62804 0.848161
lowerback -3.61831 -0.669086 0.844082
upperback -6.36369 -0.888202 0.713196
thorax -4.5426 -0.469975 0.268785
lowerneck -3.20009 10.5748 18.0353
upperneck 18.2333 15.9521 -16.0029
head 8.97788 7.71986 -6.75972
rclavicle -2.6047e-014 -2.78299e-015
rhumerus -43.2079 4.26969 -83.4646
rradius 41.1173
rwrist -8.04945
rhand -13.3172 -4.65497
rfingers 7.12502
rthumb 12.7874 -34.2433
lclavicle -2.6047e-014 -2.78299e-015
lhumerus -58.1191 11.4216 69.6647
lradius 30.6981
lwrist -9.67823
lhand -16.4894 18.4769
lfingers 7.12502
lthumb 9.72796 48.2323
rfemur -21.1486 7.83599 17.5546
rtibia 31.0907
rfoot -21.5614 -17.1486
rtoes 0.828034
lfemur -13.503 -12.134 -16.2069
ltibia 19.3437
lfoot -18.7786 24.1256
ltoes -2.55722
463
root 0.758129 15.6996 6.56364 15.1359 -5.65786 1.00946
lowerback -3.63906 -0.658581 0.544901
upperback -6.35031 -0.872537 0.715738
thorax -4.51182 -0.44827 0.438166
lowerneck -3.12912 10.5495 18.0056
upperneck 17.8328 15.878 -16.0073
head 8.81192 7.68953 -6.76366
rclavicle -1.76546e-014 1.98785e-014
rhumerus -43.5558 4.1924 -83.1625
rradius 41.7868
rwrist -8.97787
rhand -13.1138 -4.56606
rfingers 7.12502
rthumb 12.9835 -34.1421
lclavicle -1.76546e-014 1.98785e-014
lhumerus -58.2874 9.92973 70.8796
lradius 32.1917
lwrist -8.34357
lhand -16.4089 18.5374
lfingers 7.12502
lthumb 9.80567 48.289
rfemur -21.2747 7.87202 17.3354
rtibia 31.249
rfoot -21.5714 -17.2556
rtoes 0.937818
lfemur -13.3581 -12.4011 -16.3669
ltibia 18.9922
lfoot -18.6217 24.2087
ltoes -2.37914
464
root 0.766513 15.7032 6.55239 15.1186 -5.69734 1.18425
lowerback -3.68718 -0.642173 0.249061
upperback -6.33976 -0.849558 0.7011
thorax -4.46934 -0.423654 0.587634
lowerneck -3.05289 10.5181 17.954
upperneck 17.4885 15.7964 -15.9683
head 8.65773 7.65695 -6.75129
rclavicle 3.96327e-014 -1.19271e-015
rhumerus -43.8299 4.11643 -82.8884
rradius 42.358
rwrist -9.58678
rhand -12.9901 -4.59269
rfingers 7.12502
rthumb 13.1028 -34.1611
lclavicle 3.96327e-014 -1.19271e-015
lhumerus -58.3644 8.54299 71.9755
lradius 33.633
lwrist -7.04983
lhand -16.4071 18.6755
lfingers 7.12502
lthumb 9.80741 48.4272
rfemur -21.4239 7.89184 17.1059
rtibia 31.4343
rfoot -21.5996 -17.3509
rtoes 1.06587
lfemur -13.2404 -12.5968 -16.5413
ltibia 18.6666
lfoot -18.4496 24.2435
ltoes -2.2598
465
root 0.774035 15.7056 6.54084 15.1103 -5.74561 1.34572
lowerback -3.76341 -0.618886 -0.0107788
upperback -6.33457 -0.817713 0.675796
thorax -4.41786 -0.396681 0.705711
lowerneck -2.97224 10.4828 17.891
upperneck 17.2105 15.7134 -15.8974
head 8.52179 7.62464 -6.72771
rclavicle -2.4786e-015 5.56597e-015
rhumerus -44.0331 4.03192 -82.6298
rradius 42.8367
rwrist -9.8194
rhand -12.8497 -4.75343
rfingers 7.12502
rthumb 13.2381 -34.3131
lclavicle -2.4786e-015 5.56597e-015
lhumerus -58.3576 7.23314 72.9766
lradius 35.028
lwrist -5.7906
lhand -16.4928 18.8406
lfingers 7.12502
lthumb 9.72475 48.5961
rfemur -21.5899 7.89556 16.8938
rtibia 31.6286
rfoot -21.6384 -17.4255
rtoes 1.20072
lfemur -13.1568 -12.7508 -16.7041
ltibia 18.3798
lfoot -18.2796 24.2815
ltoes -2.17065
466
root 0.78121 15.707 6.52916 15.1098 -5.79892 1.47435
lowerback -3.86182 -0.589282 -0.209041
upperback -6.33648 -0.777616 0.646211
thorax -4.36273 -0.368606 0.784828
lowerneck -2.88068 10.4449 17.8263
upperneck 16.9984 15.6343 -15.8105
head 8.40576 7.59509 -6.69956
rclavicle 1.71079e-014 1.27222e-014
rhumerus -44.1761 3.97346 -82.4126
rradius 43.2256
rwrist -9.85507
rhand -12.8097 -4.872
rfingers 7.12502
rthumb 13.2767 -34.4291
lclavicle 1.71079e-014 1.27222e-014
lhumerus -58.2791 5.96828 73.9174
lradius 36.3949
lwrist -4.55565
lhand -16.646 19.0212
lfingers 7.12502
lthumb 9.57693 48.7835
rfemur -21.7573 7.87826 16.72
rtibia 31.8102
rfoot -21.6795 -17.4696
rtoes 1.33609
lfemur -13.1091 -12.8806 -16.8388
ltibia 18.1501
lfoot -18.1346 24.3484
ltoes -2.08818
467
root 0.788142 15.7079 6.5172 15.1218 -5.85778 1.55915
lowerback -3.97983 -0.556799 -0.336775
upperback -6.35086 -0.733762 0.621363
thorax -4.31085 -0.341765 0.829414
lowerneck -2.77298 10.4079 17.7604
upperneck 16.8524 15.5674 -15.721
head 8.31129 7.57163 -6.67065
rclavicle 2.35498e-014 6.36111e-015
rhumerus -44.2685 3.96596 -82.2421
rradius 43.5657
rwrist -9.80559
rhand -12.8259 -5.02174
rfingers 7.12502
rthumb 13.261 -34.5799
lclavicle 2.35498e-014 6.36111e-015
lhumerus -58.16 4.73755 74.8219
lradius 37.7611
lwrist -3.38349
lhand -16.8481 19.1907
lfingers 7.12502
lthumb 9.38195 48.9619
rfemur -21.9216 7.84266 16.5956
rtibia 31.9612
rfoot -21.7092 -17.4802
rtoes 1.45317
lfemur -13.1044 -12.9916 -16.9342
ltibia 17.9924
lfoot -18.0294 24.4522
ltoes -2.00033
468
root 0.795383 15.7085 6.50549 15.1277 -5.92075 1.59634
lowerback -4.10146 -0.517164 -0.382402
upperback -6.36628 -0.680892 0.597719
thorax -4.25924 -0.314083 0.829448
lowerneck -2.66509 10.3735 17.7087
upperneck 16.7712 15.5139 -15.6433
head 8.2434 7.55415 -6.64731
rclavicle 5.77407e-015 2.06736e-014
rhumerus -44.2937 3.98624 -82.1128
rradius 43.8726
rwrist -9.79359
rhand -12.843 -5.20485
rfingers 7.12502
rthumb 13.2445 -34.7641
lclavicle 5.77407e-015 2.06736e-014
lhumerus -57.9889 3.50532 75.7197
lradius 39.1589
lwrist -2.24503
lhand -17.0568 19.3703
lfingers 7.12502
lthumb 9.18055 49.1505
rfemur -22.0537 7.79022 16.5256
rtibia 32.0701
rfoot -21.7245 -17.4557
rtoes 1.5422
lfemur -13.1198 -13.1133 -16.9904
ltibia 17.9135
lfoot -17.9827 24.6083
ltoes -1.87754
469
root 0.802958 15.7087 6.49413 15.1228 -5.995 1.59332
lowerback -4.21482 -0.470913 -0.360404
upperback -6.38428 -0.619842 0.576942
thorax -4.21581 -0.285212 0.794921
lowerneck -2.56065 10.3445 17.6735
upperneck 16.7521 15.4778 -15.5827
head 8.20303 7.54419 -6.63094
rclavicle -1.56419e-014 1.07344e-014
rhumerus -44.2492 4.03943 -82.0247
rradius 44.1731
rwrist -9.92652
rhand -12.8202 -5.49863
rfingers 7.12502
rthumb 13.2665 -35.0564
lclavicle -1.56419e-014 1.07344e-014
lhumerus -57.7906 2.26242 76.6273
lradius 40.6273
lwrist -1.14692
lhand -17.2425 19.5757
lfingers 7.12502
lthumb 9.00134 49.3636
rfemur -22.1492 7.72662 16.5007
rtibia 32.1351
rfoot -21.7215 -17.3949
rtoes 1.60271
lfemur -13.1469 -13.2445 -17.0157
ltibia 17.9087
lfoot -17.9907 24.811
ltoes -1.73455
470
root 0.810847 15.7084 6.48332 15.0945 -6.08649 1.55445
lowerback -4.3059 -0.416964 -0.278832
upperback -6.39776 -0.54933 0.558195
thorax -4.18071 -0.254152 0.72955
lowerneck -2.46957 10.3241 17.6497
upperneck 16.7862 15.4603 -15.5356
head 8.18835 7.54184 -6.61851
rclavicle -2.01797e-014 -2.38542e-015
rhumerus -44.1183 4.11763 -81.9766
rradius 44.4754
rwrist -10.2654
rhand -12.7527 -5.94475
rfingers 7.12502
rthumb 13.3316 -35.4983
lclavicle -2.01797e-014 -2.38542e-015
lhumerus -57.5591 0.996798 77.5567
lradius 42.1957
lwrist -0.0548211
lhand -17.3534 19.8639
lfingers 7.12502
lthumb 8.8943 49.6564
rfemur -22.1976 7.66621 16.5155
rtibia 32.1616
rfoot -21.7028 -17.3064
rtoes 1.63437
lfemur -13.1652 -13.3732 -17.0165
ltibia 17.9651
lfoot -18.0415 25.0426
ltoes -1.60034
471
root 0.818887 15.7073 6.47313 15.0329 -6.19682 1.48853
lowerback -4.36132 -0.356934 -0.151881
upperback -6.40416 -0.471475 0.539779
thorax -4.15845 -0.221353 0.639568
lowerneck -2.39429 10.3134 17.6433
upperneck 16.8648 15.4613 -15.5036
head 8.19756 7.54728 -6.6113
rclavicle 6.42944e-016 8.34896e-015
rhumerus -43.8943 4.21756 -81.968
rradius 44.7807
rwrist -10.825
rhand -12.6312 -6.56333
rfingers 7.12502
rthumb 13.4487 -36.1092
lclavicle 6.42944e-016 8.34896e-015
lhumerus -57.3039 -0.291718 78.5081
lradius 43.8852
lwrist 1.0373
lhand -17.3952 20.2252
lfingers 7.12502
lthumb 8.85398 50.0195
rfemur -22.1932 7.6147 16.5615
rtibia 32.1611
rfoot -21.6815 -17.1961
rtoes 1.65276
lfemur -13.1544 -13.479 -17.0032
ltibia 18.0628
lfoot -18.1235 25.2733
ltoes -1.47812
472
root 0.8268 15.7052 6.46365 14.927 -6.33194 1.40723
lowerback -4.36993 -0.29371 0.000990453
upperback -6.40153 -0.389781 0.521634
thorax -4.15286 -0.187714 0.535746
lowerneck -2.32511 10.3135 17.6485
upperneck 16.9724 15.4814 -15.4807
head 8.22282 7.56141 -6.60643
rclavicle 3.16378e-014 1.07344e-014
rhumerus -43.5792 4.35118 -82.0056
rradius 45.0861
rwrist -11.627
rhand -12.508 -7.3395
rfingers 7.12502
rthumb 13.5675 -36.8774
lclavicle 3.16378e-014 1.07344e-014
lhumerus -57.03 -1.59733 79.4819
lradius 45.7006
lwrist 2.13336
lhand -17.3811 20.6393
lfingers 7.12502
lthumb 8.86759 50.4329
rfemur -22.1315 7.58115 16.6268
rtibia 32.146
rfoot -21.6657 -17.073
rtoes 1.65894
lfemur -13.0917 -13.5428 -16.9914
ltibia 18.1823
lfoot -18.2274 25.4807
ltoes -1.37817
